<svg width="47" height="34" viewBox="0 0 47 34" fill="none" xmlns="http://www.w3.org/2000/svg">
<g clip-path="url(#clip0_106_128)">
<path d="M46.0298 12.9562C44.9715 12.2211 42.5461 11.9455 40.6499 12.313C40.4294 10.4753 39.4151 8.86721 37.6512 7.44294L36.637 6.70784L35.9314 7.76455C35.0494 9.14288 34.6085 11.0725 34.7408 12.9103C34.7849 13.5535 35.0053 14.7021 35.6668 15.7129C35.0494 16.0804 33.7706 16.5399 32.0949 16.5399H0.212009L0.123813 16.9074C-0.184874 18.7452 -0.184874 24.4882 3.43116 28.8988C6.16524 32.2528 10.2223 33.9527 15.5581 33.9527C27.1118 33.9527 35.6668 28.3935 39.6797 18.3317C41.2673 18.3776 44.6628 18.3317 46.3826 14.8859C46.4267 14.794 46.5149 14.6102 46.8236 13.9211L47 13.5535L46.0298 12.9562ZM25.7007 0H20.8499V4.59441H25.7007V0ZM25.7007 5.51329H20.8499V10.1077H25.7007V5.51329ZM19.9679 5.51329H15.1171V10.1077H19.9679V5.51329ZM14.2352 5.51329H9.3844V10.1077H14.2352V5.51329ZM8.50243 11.0266H3.65165V15.621H8.50243V11.0266ZM14.2352 11.0266H9.3844V15.621H14.2352V11.0266ZM19.9679 11.0266H15.1171V15.621H19.9679V11.0266ZM25.7007 11.0266H20.8499V15.621H25.7007V11.0266ZM31.4334 11.0266H26.5826V15.621H31.4334V11.0266Z" fill="#2396ED"/>
</g>
<defs>
<clipPath id="clip0_106_128">
<rect width="47" height="34" fill="white"/>
</clipPath>
</defs>
</svg>
