<svg width="35" height="35" viewBox="0 0 35 35" fill="none" xmlns="http://www.w3.org/2000/svg">
<g clip-path="url(#clip0_106_206)">
<path d="M35 0H0V35H35V0Z" fill="white" fill-opacity="0.01"/>
<path d="M17.5 32.0834C23.5045 32.0834 28.4374 27.325 28.4374 21.2174C28.4374 19.718 28.3612 18.1107 27.5301 15.6126C26.6989 13.1147 26.5315 12.7922 25.6527 11.2495C25.2773 14.3977 23.2684 15.7098 22.7581 16.1019C22.7581 15.6939 21.5429 11.1824 19.7003 8.48307C17.8916 5.83335 15.4316 4.09496 13.9893 2.91669C13.9893 5.15506 13.3597 8.48307 12.4581 10.1787C11.5565 11.8744 11.3872 11.9362 10.261 13.1981C9.13485 14.46 8.61795 14.8497 7.67623 16.3808C6.73455 17.912 6.5625 19.9513 6.5625 21.4507C6.5625 27.5583 11.4955 32.0834 17.5 32.0834Z" stroke="#4E4E8D" stroke-width="2" stroke-linejoin="round"/>
</g>
<defs>
<clipPath id="clip0_106_206">
<rect width="35" height="35" fill="white"/>
</clipPath>
</defs>
</svg>
