<svg width="35" height="35" viewBox="0 0 35 35" fill="none" xmlns="http://www.w3.org/2000/svg">
<path d="M8.02083 29.1667L4.375 18.5938L2.94696 11.4536C2.92681 11.3529 2.91666 11.2503 2.91666 11.1476V11.0303C2.91666 10.0312 4.21632 9.64398 4.7631 10.4803C4.80346 10.5419 4.83923 10.6066 4.87013 10.6735L7.73697 16.885C7.89702 17.2318 8.29748 17.3963 8.65506 17.2622L8.75 17.2266L7.3858 7.25103C7.3255 6.80991 7.44151 6.36277 7.7086 6.00658C8.08237 5.5082 8.78945 5.4072 9.28783 5.78099L9.38488 5.85379C9.68391 6.07809 9.90908 6.3867 10.0314 6.73997L13.0295 15.4013C13.0866 15.5663 13.2422 15.6771 13.4169 15.6771C13.6537 15.6771 13.8413 15.4771 13.826 15.2408L13.1822 5.26263C13.1459 4.69842 13.3542 4.14587 13.7539 3.74609C14.2261 3.27391 14.9778 3.23228 15.4992 3.64942L15.7475 3.84803C16.1715 4.18718 16.4542 4.67187 16.5406 5.20786L18.1729 15.3287C18.2053 15.5295 18.3787 15.6771 18.5821 15.6771C18.7955 15.6771 18.974 15.515 18.9946 15.3026L19.963 5.29505C20.02 4.70687 20.3124 4.16675 20.7739 3.7976L20.9244 3.67716C21.4656 3.24422 22.2457 3.28743 22.7358 3.77748C23.1184 4.16008 23.3333 4.679 23.3333 5.22007V19.4457C23.3333 20.0226 23.9715 20.371 24.4568 20.059L27.7169 17.9633C28.1874 17.6608 28.7349 17.5 29.2941 17.5H30.8024C31.3677 17.5 31.7179 18.1154 31.4293 18.6014L25.1562 29.1667C25.1562 29.1667 22.6042 32.0834 16.7708 32.0834C10.9375 32.0834 8.50697 30.1389 8.02083 29.1667Z" stroke="#4E4E8D" stroke-width="2" stroke-linecap="round" stroke-linejoin="round"/>
</svg>
