<svg width="32" height="32" viewBox="0 0 32 32" fill="none" xmlns="http://www.w3.org/2000/svg">
<g clip-path="url(#clip0_107_305)">
<path d="M0 0H32V32H0V0Z" fill="#F7DF1E"/>
<path d="M8.41399 26.7415L10.8629 25.2595C11.3353 26.0972 11.7651 26.8059 12.7959 26.8059C13.784 26.8059 14.407 26.4194 14.407 24.9159V14.6911H17.4142V24.9584C17.4142 28.073 15.5885 29.4907 12.9248 29.4907C10.5192 29.4907 9.12277 28.2448 8.41394 26.7413" fill="black"/>
<path d="M19.0476 26.4193L21.4962 25.0016C22.1407 26.0543 22.9785 26.8275 24.4605 26.8275C25.7066 26.8275 26.5011 26.2045 26.5011 25.3453C26.5011 24.3142 25.6849 23.949 24.3101 23.3478L23.5585 23.0253C21.3889 22.1018 19.9497 20.9419 19.9497 18.4931C19.9497 16.2377 21.6681 14.5192 24.3532 14.5192C26.265 14.5192 27.6397 15.1851 28.6277 16.9251L26.2863 18.4286C25.7708 17.505 25.2124 17.1399 24.3533 17.1399C23.4725 17.1399 22.914 17.6984 22.914 18.4286C22.914 19.3308 23.4725 19.6961 24.7612 20.2546L25.513 20.5768C28.0692 21.6723 29.5084 22.7892 29.5084 25.3023C29.5084 28.009 27.3819 29.491 24.525 29.491C21.7326 29.491 19.9282 28.1593 19.0476 26.4193Z" fill="black"/>
</g>
<defs>
<clipPath id="clip0_107_305">
<rect width="32" height="32" fill="white"/>
</clipPath>
</defs>
</svg>
