<svg width="44" height="46" viewBox="0 0 44 46" fill="none" xmlns="http://www.w3.org/2000/svg">
<g clip-path="url(#clip0_106_134)">
<path d="M43.9752 10.3883C43.9915 10.4495 44 10.5126 44 10.576V20.4326C44 20.6901 43.8641 20.9279 43.6438 21.056L35.4834 25.819V35.2596C35.4834 35.5166 35.3487 35.7537 35.1289 35.8831L18.0948 45.8241C18.0558 45.8465 18.0133 45.8609 17.9708 45.8762C17.9548 45.8816 17.9397 45.8915 17.9229 45.896C17.8038 45.9277 17.6787 45.9277 17.5596 45.896C17.5401 45.8906 17.5224 45.8798 17.5038 45.8726C17.4648 45.8582 17.424 45.8457 17.3868 45.8241L0.356225 35.8831C0.136017 35.7548 0 35.5171 0 35.2596V5.68996C0 5.62528 0.00886132 5.56239 0.0248117 5.5013C0.0301285 5.48064 0.0425343 5.46178 0.0496234 5.44112C0.0629154 5.40339 0.0753212 5.36476 0.0948161 5.32972C0.108108 5.30637 0.127603 5.2875 0.143553 5.26594C0.163934 5.23719 0.182543 5.20755 0.206469 5.18239C0.22685 5.16173 0.253434 5.14646 0.276473 5.12849C0.302171 5.10693 0.32521 5.08358 0.354453 5.06651H0.355339L8.87107 0.0960065C9.0905 -0.0320022 9.36054 -0.0320022 9.57997 0.0960065L18.0957 5.06651H18.0975C18.1258 5.08448 18.1498 5.10693 18.1755 5.1276C18.1985 5.14556 18.2242 5.16173 18.2446 5.1815C18.2694 5.20755 18.2871 5.23719 18.3084 5.26594C18.3234 5.2875 18.3438 5.30637 18.3562 5.32972C18.3766 5.36566 18.3881 5.40339 18.4023 5.44112C18.4094 5.46178 18.4218 5.48064 18.4271 5.5022C18.4434 5.56342 18.4518 5.62654 18.4519 5.68996V24.1589L25.5481 20.0166V10.5751C25.5481 10.5122 25.5569 10.4485 25.5729 10.3883C25.5791 10.3667 25.5906 10.3478 25.5977 10.3272C25.6119 10.2894 25.6243 10.2508 25.6438 10.2158C25.6571 10.1924 25.6766 10.1736 25.6916 10.152C25.7129 10.1233 25.7306 10.0936 25.7554 10.0685C25.7758 10.0478 25.8015 10.0325 25.8245 10.0146C25.8511 9.99299 25.8742 9.96964 25.9025 9.95257H25.9034L34.42 4.98207C34.6394 4.85387 34.9095 4.85387 35.1289 4.98207L43.6447 9.95257C43.6748 9.97053 43.6978 9.99299 43.7244 10.0137C43.7466 10.0316 43.7723 10.0478 43.7926 10.0676C43.8175 10.0936 43.8352 10.1233 43.8564 10.152C43.8724 10.1736 43.8919 10.1924 43.9043 10.2158C43.9247 10.2508 43.9362 10.2894 43.9504 10.3272C43.9584 10.3478 43.9699 10.3667 43.9752 10.3883ZM42.5804 20.0166V11.8202L39.6004 13.5594L35.4834 15.9624V24.1589L42.5813 20.0166H42.5804ZM34.0647 34.8437V26.6419L30.0151 28.9865L18.451 35.6774V43.9564L34.0647 34.8437ZM1.41958 6.93415V34.8437L17.0315 43.9555V35.6783L8.8755 30.9988L8.87284 30.997L8.8693 30.9952C8.84183 30.9791 8.81879 30.9557 8.79309 30.9359C8.77094 30.918 8.74524 30.9036 8.72574 30.8838L8.72397 30.8811C8.70093 30.8587 8.68498 30.8308 8.66549 30.8057C8.64776 30.7814 8.6265 30.7608 8.61232 30.7356L8.61143 30.7329C8.59548 30.706 8.58573 30.6736 8.57421 30.6431C8.56269 30.6161 8.54763 30.591 8.54054 30.5622V30.5613C8.53168 30.5272 8.52991 30.4913 8.52636 30.4562C8.52282 30.4293 8.51573 30.4023 8.51573 30.3754V30.3736V11.0764L4.39965 8.67244L1.41958 6.93505V6.93415ZM9.22641 1.54952L2.13115 5.68996L9.22463 9.83039L16.319 5.68906L9.22463 1.54952H9.22641ZM12.9163 27.3893L17.0323 24.9871V6.93415L14.0523 8.67334L9.93531 11.0764V29.1294L12.9163 27.3893ZM34.7745 6.43558L27.6801 10.576L34.7745 14.7165L41.868 10.5751L34.7745 6.43558ZM34.0647 15.9624L29.9477 13.5594L26.9677 11.8202V20.0166L31.0837 22.4188L34.0647 24.1589V15.9624ZM17.7404 34.4332L28.1462 28.4107L33.3478 25.4013L26.2588 21.2635L18.0966 26.0274L10.6575 30.3691L17.7404 34.4332Z" fill="#FF2D20"/>
</g>
<defs>
<clipPath id="clip0_106_134">
<rect width="44" height="46" fill="white"/>
</clipPath>
</defs>
</svg>
