<svg width="40" height="46" viewBox="0 0 40 46" fill="none" xmlns="http://www.w3.org/2000/svg">
<g clip-path="url(#clip0_106_116)">
<path d="M0.320917 34.49C0.527221 34.8611 0.825215 35.1393 1.19198 35.3481L18.8424 45.6446C19.5759 46.0852 20.4699 46.0852 21.1805 45.6446L38.8309 35.3481C39.5645 34.9306 40 34.1422 40 33.2841V12.691C40 11.8329 39.5645 11.0445 38.8309 10.627L21.1805 0.330464C20.447 -0.110155 19.553 -0.110155 18.8424 0.330464L1.19198 10.627C0.43553 11.0445 0 11.8329 0 12.691V33.3073C0 33.7247 0.0916906 34.119 0.320917 34.49Z" fill="#009639"/>
<path d="M14.3496 30.8491C14.3496 32.1246 13.341 33.145 12.0803 33.145C10.8195 33.145 9.81091 32.1246 9.81091 30.8491V15.1028C9.81091 13.8737 10.8883 12.8765 12.3782 12.8765C13.4556 12.8765 14.7164 13.3171 15.4728 14.2679L16.1605 15.1028L25.6505 26.5821V15.1492C25.6505 13.8737 26.6591 12.8533 27.9198 12.8533C29.1805 12.8533 30.1891 13.8737 30.1891 15.1492V30.8955C30.1891 32.1246 29.1118 33.1218 27.6218 33.1218C26.5444 33.1218 25.2837 32.6811 24.5272 31.7303L14.3496 19.4394V30.8491Z" fill="white"/>
</g>
<defs>
<clipPath id="clip0_106_116">
<rect width="40" height="46" fill="white"/>
</clipPath>
</defs>
</svg>
