<svg width="22" height="25" viewBox="0 0 22 25" fill="none" xmlns="http://www.w3.org/2000/svg">
<g clip-path="url(#clip0_107_354)">
<path d="M11 24.9536C10.6584 24.9536 10.3395 24.8619 10.0435 24.7014L7.01449 22.8904C6.55901 22.6382 6.78675 22.5465 6.9234 22.5007C7.5383 22.2943 7.65217 22.2485 8.28986 21.8817C8.35818 21.8358 8.44928 21.8588 8.5176 21.9046L10.8406 23.303C10.9317 23.3489 11.0455 23.3489 11.1139 23.303L20.2008 18.0074C20.2919 17.9616 20.3375 17.8699 20.3375 17.7552V7.18692C20.3375 7.07229 20.2919 6.98059 20.2008 6.93474L11.1139 1.66205C11.0228 1.6162 10.9089 1.6162 10.8406 1.66205L1.75362 6.93474C1.66253 6.98059 1.61698 7.09522 1.61698 7.18692V17.7552C1.61698 17.8469 1.66253 17.9616 1.75362 18.0074L4.23602 19.4517C5.57971 20.1394 6.42236 19.337 6.42236 18.5347V8.10391C6.42236 7.96636 6.53623 7.82881 6.69565 7.82881H7.85714C7.99379 7.82881 8.13043 7.94343 8.13043 8.10391V18.5347C8.13043 20.3457 7.15114 21.4003 5.44306 21.4003C4.91925 21.4003 4.50932 21.4003 3.34783 20.8272L0.956522 19.4517C0.364389 19.1078 0 18.4659 0 17.7782V7.20984C0 6.5221 0.364389 5.8802 0.956522 5.53633L10.0435 0.24071C10.6128 -0.0802367 11.3872 -0.0802367 11.9565 0.24071L21.0435 5.53633C21.6356 5.8802 22 6.5221 22 7.20984V17.7782C22 18.4659 21.6356 19.1078 21.0435 19.4517L11.9565 24.7473C11.6605 24.8848 11.3188 24.9536 11 24.9536ZM13.8012 17.6865C9.81573 17.6865 8.99586 15.8525 8.99586 14.2936C8.99586 14.156 9.10973 14.0185 9.26915 14.0185H10.4534C10.5901 14.0185 10.7039 14.1102 10.7039 14.2477C10.8861 15.4628 11.4099 16.0588 13.824 16.0588C15.7371 16.0588 16.5569 15.6232 16.5569 14.5916C16.5569 13.9956 16.3292 13.56 13.3458 13.262C10.8634 13.0098 9.3147 12.4596 9.3147 10.4652C9.3147 8.60825 10.8634 7.50786 13.4596 7.50786C16.3747 7.50786 17.8095 8.51655 17.9917 10.7173C17.9917 10.7861 17.9689 10.8549 17.9234 10.9237C17.8778 10.9695 17.8095 11.0154 17.7412 11.0154H16.5569C16.4431 11.0154 16.3292 10.9237 16.3064 10.809C16.0331 9.54817 15.3271 9.13552 13.4596 9.13552C11.3644 9.13552 11.1139 9.86911 11.1139 10.4193C11.1139 11.0841 11.4099 11.2905 14.234 11.6572C17.0352 12.024 18.3561 12.5513 18.3561 14.5228C18.3333 16.5402 16.6936 17.6865 13.8012 17.6865Z" fill="#539E43"/>
</g>
<defs>
<clipPath id="clip0_107_354">
<rect width="22" height="25" fill="white"/>
</clipPath>
</defs>
</svg>
