<svg width="62" height="31" viewBox="0 0 62 31" fill="none" xmlns="http://www.w3.org/2000/svg">
<g clip-path="url(#clip0_106_138)">
<path d="M14.1011 6.50227C16.7999 6.52475 18.7555 7.29683 19.968 8.81721C21.1805 10.3376 21.5805 12.4142 21.1688 15.0471C21.0089 16.2502 20.6542 17.4302 20.1052 18.5876C19.5789 19.7451 18.8474 20.7889 17.9094 21.7196C16.7656 22.8996 15.5421 23.6485 14.2383 23.9665C12.9346 24.2844 11.5849 24.4431 10.1898 24.4431H6.07274L4.76899 30.9113H0L4.90622 6.50227H14.1011ZM54.7757 6.50227C57.4745 6.52475 59.4301 7.29683 60.6426 8.81721C61.8551 10.3376 62.2551 12.4142 61.8434 15.0471C61.6835 16.2502 61.3288 17.4302 60.7798 18.5876C60.2535 19.7451 59.522 20.7889 58.584 21.7196C57.4402 22.8996 56.2167 23.6485 54.9129 23.9665C53.6092 24.2844 52.2595 24.4431 50.8644 24.4431H46.7473L45.4436 30.9113H40.6746L45.5808 6.50227H54.7757ZM31.336 0L29.9979 6.50227H34.2523C36.5853 6.54787 38.3234 7.02448 39.4673 7.93209C40.6338 8.83969 40.9769 10.565 40.4966 13.1067L38.1979 24.4431H33.3946L35.5904 13.6173C35.8189 12.4823 35.7502 11.6768 35.3845 11.2002C35.0187 10.7236 34.2296 10.4853 33.0172 10.4853L29.2088 10.4513L26.3955 24.4431H21.6608L26.6013 0H31.336ZM10.3957 10.3832C10.1212 10.4057 9.85841 10.4172 9.60659 10.4172L8.91347 10.4172L6.86185 20.5962C6.99909 20.6187 7.13632 20.6302 7.27356 20.6302H7.75389C9.94968 20.6527 11.7797 20.4375 13.2434 19.9834C14.707 19.5068 15.691 17.8502 16.194 15.0131C16.6057 12.6301 16.194 11.2568 14.9588 10.8939C13.7464 10.5309 12.2257 10.3607 10.3957 10.3832ZM51.0703 10.3832C50.7958 10.4057 50.533 10.4172 50.2812 10.4172L49.588 10.4172L47.5364 20.5962C47.6737 20.6187 47.8109 20.6302 47.9482 20.6302H48.4285C50.6243 20.6527 52.4543 20.4375 53.918 19.9834C55.3816 19.5068 56.3656 17.8502 56.8686 15.0131C57.2803 12.6301 56.8686 11.2568 55.6334 10.8939C54.421 10.5309 52.9003 10.3607 51.0703 10.3832Z" fill="#4E4E8D"/>
</g>
<defs>
<clipPath id="clip0_106_138">
<rect width="62" height="31" fill="white"/>
</clipPath>
</defs>
</svg>
