<svg width="28" height="28" viewBox="0 0 28 28" fill="none" xmlns="http://www.w3.org/2000/svg">
<g clip-path="url(#clip0_107_319)">
<path d="M13.6988 0.00793457C6.9198 0.00793508 7.34312 3.09509 7.34312 3.09509L7.35068 6.29336H13.8197V7.25363H4.7812C4.7812 7.25363 0.443298 6.73701 0.443298 13.92C0.443298 21.103 4.22951 20.8482 4.22951 20.8482H6.48915V17.5151C6.48915 17.5151 6.36735 13.5391 10.2149 13.5391H16.6311C16.6311 13.5391 20.2359 13.6002 20.2359 9.88049V3.72998C20.2359 3.72998 20.7832 0.00793457 13.6988 0.00793457ZM10.1318 2.15863C10.7754 2.15863 11.2956 2.70491 11.2956 3.38079C11.2956 4.05668 10.7754 4.60296 10.1318 4.60296C9.48815 4.60296 8.96795 4.05668 8.96795 3.38079C8.96795 2.70491 9.48815 2.15863 10.1318 2.15863Z" fill="url(#paint0_linear_107_319)"/>
<path d="M13.8912 27.9041C20.6702 27.9041 20.2469 24.8169 20.2469 24.8169L20.2393 21.6186H13.7703V20.6584H22.8088C22.8088 20.6584 27.1467 21.175 27.1467 13.992C27.1467 6.80903 23.3605 7.06375 23.3605 7.06375H21.1009V10.3969C21.1009 10.3969 21.2227 14.3729 17.3751 14.3729H10.9589C10.9589 14.3729 7.3541 14.3117 7.3541 18.0315V24.182C7.3541 24.182 6.80679 27.9041 13.8912 27.9041ZM17.4582 25.7534C16.8146 25.7534 16.2944 25.2071 16.2944 24.5312C16.2944 23.8553 16.8146 23.309 17.4582 23.309C18.1019 23.309 18.6221 23.8553 18.6221 24.5312C18.6221 25.2071 18.1019 25.7534 17.4582 25.7534Z" fill="url(#paint1_linear_107_319)"/>
</g>
<defs>
<linearGradient id="paint0_linear_107_319" x1="257.07" y1="250.926" x2="1644.4" y2="1558.85" gradientUnits="userSpaceOnUse">
<stop stop-color="#387EB8"/>
<stop offset="1" stop-color="#366994"/>
</linearGradient>
<linearGradient id="paint1_linear_107_319" x1="386.115" y1="435.962" x2="1872.61" y2="1774.11" gradientUnits="userSpaceOnUse">
<stop stop-color="#FFE052"/>
<stop offset="1" stop-color="#FFC331"/>
</linearGradient>
<clipPath id="clip0_107_319">
<rect width="26.768" height="28" fill="white" transform="translate(0.427979)"/>
</clipPath>
</defs>
</svg>
