<svg width="40" height="40" viewBox="0 0 40 40" fill="none" xmlns="http://www.w3.org/2000/svg">
<path d="M11.7197 18.6655C16.8747 15.9562 20.3113 14.1699 22.0296 13.3069C26.9414 10.8426 27.9608 10.4146 28.6266 10.4001C28.773 10.3973 29.099 10.4409 29.3117 10.6486C29.4885 10.8236 29.5382 11.0603 29.5631 11.2263C29.5852 11.3923 29.6156 11.7706 29.5907 12.0659C29.3255 15.4392 28.1735 23.6251 27.5879 27.4034C27.342 29.0022 26.853 29.5381 26.3806 29.5905C25.353 29.7045 24.5739 28.7718 23.5794 27.9854C22.0241 26.7544 21.1456 25.9884 19.6345 24.7875C17.8885 23.3995 19.0212 22.6365 20.0157 21.3898C20.2754 21.0635 24.8004 16.0985 24.8861 15.6482C24.8971 15.5919 24.9082 15.3819 24.8032 15.2712C24.701 15.1602 24.549 15.1982 24.4385 15.2282C24.2811 15.2709 21.7975 17.2535 16.9796 21.1758C16.2752 21.7605 15.637 22.0455 15.0624 22.0305C14.4326 22.0142 13.217 21.5998 12.3137 21.2458C11.2087 20.8115 10.3274 20.5818 10.4048 19.8442C10.4434 19.4602 10.8827 19.0672 11.7197 18.6655Z" fill="white"/>
</svg>
