<svg width="39" height="35" viewBox="0 0 39 35" fill="none" xmlns="http://www.w3.org/2000/svg">
<g clip-path="url(#clip0_106_151)">
<path d="M38.1545 0H0V35H38.1545V0Z" fill="white" fill-opacity="0.01"/>
<path d="M19.0773 32.0834C27.8573 32.0834 34.975 25.5542 34.975 17.5C34.975 9.44586 27.8573 2.91669 19.0773 2.91669C10.2972 2.91669 3.17954 9.44586 3.17954 17.5C3.17954 25.5542 10.2972 32.0834 19.0773 32.0834Z" stroke="#4E4E8D" stroke-width="2"/>
<path d="M3.17954 15.1961C5.576 14.1581 7.34845 14.0135 8.49685 14.7622C10.2195 15.8855 10.4355 20.4633 14.3536 18.2754C18.2718 16.0876 12.6758 15.1961 13.8906 12.0268C15.1054 8.85745 19.0839 11.3193 19.4794 7.84777C19.743 5.53334 16.725 4.64777 10.4254 5.19106" stroke="#4E4E8D" stroke-width="2"/>
<path d="M28.616 5.83331C24.0737 9.47083 22.4872 11.6674 23.8567 12.423C25.9107 13.5564 26.7823 11.9607 29.2889 12.423C31.7955 12.8854 31.2528 16.0021 29.9344 16.0021C28.616 16.0021 21.7878 15.2044 22.1318 18.8599C22.4756 22.5153 26.5827 23.0564 26.5827 25.0987C26.5827 26.4602 25.674 28.5439 23.8567 31.3499" stroke="#4E4E8D" stroke-width="2" stroke-linecap="round"/>
<path d="M4.85246 24.0088C5.57699 23.7189 6.12163 23.5064 6.48635 23.3713C9.54435 22.238 11.8134 21.9708 13.2934 22.5699C15.9106 23.6293 14.9044 25.7688 15.7242 26.5571C16.5439 27.3453 18.5909 27.116 18.5909 28.6154C18.5909 29.6151 18.2248 30.7444 17.4927 32.0032" stroke="#4E4E8D" stroke-width="2" stroke-linecap="round"/>
</g>
<defs>
<clipPath id="clip0_106_151">
<rect width="38.1545" height="35" fill="white"/>
</clipPath>
</defs>
</svg>
